<?xml version="1.0" encoding="UTF-8"?>
<svg version="1.1" xmlns="http://www.w3.org/2000/svg" width="560" height="322">
<path d="M0 0 C1.22835612 0.57973318 2.44989821 1.17406178 3.6652832 1.78051758 C4.33316864 2.09997345 5.00105408 2.41942932 5.68917847 2.74856567 C7.87090905 3.79522646 10.04315543 4.86021272 12.21606445 5.92504883 C13.75366656 6.66573837 15.29200776 7.40489541 16.83105469 8.14257812 C19.942671 9.63496546 23.05152474 11.13287687 26.15844727 12.63500977 C32.10632945 15.50440645 38.09548967 18.28175389 44.09106445 21.05004883 C46.36063781 22.10204134 48.63016741 23.15412824 50.8996582 24.20629883 C54.99303186 26.10199526 59.08717769 27.9960223 63.18139648 29.88989258 C68.33917485 32.27577116 73.49654222 34.66253634 78.65356445 37.05004883 C79.52789124 37.45479431 80.40221802 37.85953979 81.30303955 38.27655029 C94.08657601 44.19611473 106.84610163 50.16459151 119.58685303 56.17562866 C128.63324758 60.4431904 137.69257959 64.67967805 146.77856445 68.86254883 C148.30767456 69.56734375 148.30767456 69.56734375 149.86767578 70.28637695 C154.38632583 72.36901186 158.90520353 74.45113623 163.42602539 76.52905273 C166.83785161 78.09792375 170.24687554 79.67276566 173.65441895 81.25091553 C174.96675218 81.85756014 176.2799592 82.46231881 177.59411621 83.06500244 C196.53755106 91.75552205 196.53755106 91.75552205 198.52856445 95.73754883 C199.0617381 100.18648955 199.13623673 103.66243634 196.90356445 107.61254883 C193.90164209 110.29847936 190.69407685 112.73754883 186.52856445 112.73754883 C186.52856445 113.39754883 186.52856445 114.05754883 186.52856445 114.73754883 C187.08566605 114.9116478 187.64276764 115.08574677 188.2167511 115.26512146 C193.5152784 116.96866019 198.50242933 118.97620156 203.5090332 121.39770508 C204.23660828 121.74403992 204.96418335 122.09037476 205.71380615 122.44720459 C208.05013959 123.56017964 210.38311355 124.68000347 212.71606445 125.80004883 C215.93872369 127.3392397 219.16308965 128.87482858 222.38793945 130.40942383 C223.17752548 130.78561356 223.96711151 131.16180328 224.78062439 131.5493927 C232.16180671 135.05737617 239.59915596 138.43335287 247.09375 141.69287109 C252.07305776 143.90111227 256.67620783 145.98707991 259.81762695 150.65161133 C260.69172407 153.21626989 260.86561845 155.40320403 260.90356445 158.11254883 C260.93192383 159.0277832 260.9602832 159.94301758 260.98950195 160.88598633 C260.36844219 164.72813572 259.00049854 166.74053071 256.52856445 169.73754883 C254.30955111 171.27513288 252.27930414 172.51061532 249.90356445 173.73754883 C249.22044189 174.10654297 248.53731934 174.47553711 247.83349609 174.85571289 C246.28079414 175.69205578 244.72429295 176.52136965 243.16479492 177.3449707 C239.19259203 179.44327088 235.23860437 181.57521097 231.2824707 183.70361328 C229.04516443 184.90708773 226.80685905 186.10870638 224.56762695 187.30859375 C217.45623999 191.12750223 210.41060562 195.0434297 203.40356445 199.05004883 C192.81973451 205.09221234 182.07467991 210.80717647 171.30151367 216.50146484 C169.93836589 217.22203118 168.57524707 217.94265229 167.2121582 218.66333008 C166.54804932 219.01444351 165.88394043 219.36555695 165.19970703 219.72731018 C157.69707488 223.6990691 150.24938188 227.76955573 142.8059082 231.85083008 C139.09756845 233.88376131 135.38064696 235.89988705 131.6574707 237.90551758 C121.70068198 243.27045447 111.79014486 248.69526889 101.96606445 254.30004883 C91.46563499 260.28749309 80.79044343 265.89866648 70.03466797 271.41162109 C67.55339508 272.72441145 65.14175499 274.12732709 62.7199707 275.54614258 C57.59186061 278.41238577 53.30044737 278.69505499 47.52856445 277.73754883 C43.70878243 275.9640786 42.04519569 274.4780536 39.65356445 271.05004883 C37.66293766 265.18875882 37.73014962 259.91002855 40.28173828 254.2253418 C41.08135794 252.63412762 41.90035989 251.0525476 42.7355957 249.47973633 C43.17208939 248.62221771 43.60858307 247.7646991 44.05830383 246.88119507 C45.46971959 244.11633763 46.90527418 241.36481395 48.34106445 238.61254883 C49.31885656 236.70571767 50.29459903 234.79783413 51.26831055 232.88891602 C52.7100257 230.06319788 54.15291912 227.23817279 55.6027832 224.41662598 C59.0740158 217.66075019 62.42228389 210.86193982 65.65356445 203.98754883 C70.77214079 193.15042023 76.12782311 182.43641585 81.52856445 171.73754883 C78.27638573 172.8216084 75.50978818 174.26740715 72.48168945 175.87817383 C71.88262283 176.19653198 71.28355621 176.51489014 70.66633606 176.84289551 C68.70222283 177.88828491 66.74027434 178.93765719 64.77856445 179.98754883 C64.10518036 180.34691528 63.43179626 180.70628174 62.73800659 181.07653809 C53.02476287 186.26257737 43.40384688 191.58838251 33.84692383 197.05810547 C25.935855 201.56349022 17.89440172 205.79483709 9.79833984 209.95727539 C8.88947021 210.42488281 7.98060059 210.89249023 7.04418945 211.37426758 C6.24271484 211.78378662 5.44124023 212.19330566 4.61547852 212.61523438 C2.32791656 213.8031048 2.32791656 213.8031048 -0.47143555 215.73754883 C-3.53669906 216.28286724 -6.40551884 216.28080775 -9.47143555 215.73754883 C-12.22713001 213.55595738 -13.90732301 211.86577389 -15.47143555 208.73754883 C-15.85587182 203.45615823 -15.09755269 200.12813838 -12.70849609 195.43286133 C-12.41405106 194.84455536 -12.11960602 194.25624939 -11.8162384 193.65011597 C-10.84322997 191.71403323 -9.85082742 189.78861227 -8.8581543 187.86254883 C-8.16576252 186.49341169 -7.47469155 185.12360589 -6.78486633 183.75317383 C-4.96161995 180.1390299 -3.12214424 176.53340208 -1.27862549 172.92956543 C1.62867886 167.23793674 4.50871946 161.53239673 7.39468002 155.82992554 C8.45066488 153.74481684 9.50857719 151.66069427 10.56668091 149.57666016 C16.05891584 138.74533455 21.39722979 127.84407253 26.51473999 116.82983398 C27.38649346 115.03074853 28.37392706 113.28854675 29.38134766 111.56176758 C30.90065198 107.82154362 30.49652055 105.62621196 29.52856445 101.73754883 C28.28128642 98.72334098 28.28128642 98.72334098 26.60668945 95.80786133 C25.99994385 94.69556152 25.39319824 93.58326172 24.76806641 92.43725586 C24.1049134 91.24567889 23.44174571 90.05411008 22.77856445 88.86254883 C21.74780441 86.98186709 20.72105921 85.09903005 19.6945343 83.21603394 C18.99577327 81.93471863 18.29580386 80.65406159 17.59465027 79.37405396 C14.24618429 73.2535233 11.03461608 67.06516404 7.84106445 60.86254883 C3.7118655 52.86799952 -0.51437937 44.93647308 -4.84643555 37.05004883 C-6.72527113 33.61462958 -8.59987895 30.17693834 -10.47143555 26.73754883 C-10.86685547 26.01374023 -11.26227539 25.28993164 -11.66967773 24.54418945 C-12.70326009 22.63758122 -13.71619293 20.72171215 -14.72143555 18.80004883 C-15.2628418 17.78040039 -15.80424805 16.76075195 -16.36206055 15.71020508 C-17.90929816 11.56426204 -18.08173334 7.73488706 -16.78393555 3.48754883 C-12.44453963 -2.29831239 -6.39743725 -2.32654533 0 0 Z M168.79418945 122.12426758 C167.36333008 122.90302246 167.36333008 122.90302246 165.90356445 123.69750977 C164.87231445 124.26759766 163.84106445 124.83768555 162.77856445 125.42504883 C161.7009082 126.01447266 160.62325195 126.60389648 159.51293945 127.21118164 C151.55546518 131.57803157 143.64904673 136.03361733 135.78662109 140.56933594 C129.95467509 143.90322612 124.04605496 147.01471515 118.0402832 150.01879883 C115.82892267 151.13969019 113.61869045 152.26277954 111.40869141 153.38635254 C109.95810218 154.11487751 108.50171571 154.83198271 107.03955078 155.5369873 C104.98288666 156.52918782 102.94900942 157.55869561 100.9152832 158.59692383 C99.731521 159.17925781 98.54775879 159.7615918 97.328125 160.36157227 C94.31088396 162.92229345 94.19141372 163.20182183 93.61923218 166.82226562 C92.60641767 171.93417161 90.65150274 176.14541478 88.27832031 180.75805664 C87.85047745 181.60965363 87.42263458 182.46125061 86.98182678 183.33865356 C85.578147 186.12737201 84.16068112 188.90884291 82.7434082 191.69067383 C81.76112102 193.63828487 80.77990061 195.58643427 79.79969788 197.53509521 C77.22582475 202.64686892 74.64102512 207.75302697 72.05279541 212.85754395 C67.90474871 221.04003158 63.76825382 229.22831069 59.64157295 237.42159271 C58.19950517 240.27882682 56.74962122 243.13199641 55.29905701 245.98492432 C54.41554035 247.73466996 53.53231048 249.48456045 52.64941406 251.23461914 C52.24471893 252.02536835 51.8400238 252.81611755 51.42306519 253.63082886 C48.7296915 258.94172774 48.7296915 258.94172774 47.52856445 264.73754883 C48.51890671 267.14138878 48.51890671 267.14138878 50.52856445 268.73754883 C54.53023426 269.18002903 56.81779957 268.34123242 60.23950195 266.31567383 C61.14249023 265.79102539 62.04547852 265.26637695 62.97583008 264.72583008 C64.42505859 263.86538086 64.42505859 263.86538086 65.90356445 262.98754883 C73.85390411 258.37382791 81.84932151 253.93237522 90.02856445 249.73754883 C97.60600634 245.83522066 105.06963827 241.78524128 112.46606445 237.55004883 C121.74695834 232.24055931 131.13911311 227.17082547 140.59106445 222.17504883 C141.62395096 221.6290654 141.62395096 221.6290654 142.67770386 221.072052 C143.36317291 220.7097348 144.04864197 220.3474176 144.75488281 219.97412109 C146.11827654 219.25339542 147.48163953 218.53261158 148.8449707 217.81176758 C149.5090947 217.46064407 150.17321869 217.10952057 150.85746765 216.74775696 C158.36009353 212.77602535 165.8077632 208.70553306 173.2512207 204.62426758 C176.95956046 202.59133635 180.67648195 200.5752106 184.3996582 198.56958008 C195.28049907 192.70714901 206.09876533 186.75586649 216.83764648 180.63696289 C225.14958366 175.91476062 233.55087445 171.36579512 241.98950195 166.87426758 C242.94727539 166.3612207 243.90504883 165.84817383 244.8918457 165.31958008 C245.74045166 164.8681665 246.58905762 164.41675293 247.46337891 163.95166016 C250.1077903 162.39702511 251.34179633 161.42859087 252.15356445 158.42504883 C251.75784976 155.38292489 251.75784976 155.38292489 248.41137695 153.50708008 C242.12073732 149.76033678 235.41915941 146.80028223 228.77856445 143.73754883 C227.36437085 143.0807796 225.95039269 142.42354629 224.53662109 141.76586914 C221.63762547 140.41828842 218.73725362 139.07373891 215.83569336 137.73168945 C211.70239491 135.81941532 207.57394089 133.89687215 203.4465332 131.97192383 C200.95321952 130.81008765 198.45968161 129.64873351 195.96606445 128.48754883 C194.81460938 127.95129883 193.6631543 127.41504883 192.47680664 126.86254883 C189.49767768 125.47947729 186.51506725 124.1046138 183.52856445 122.73754883 C182.79653809 122.40045898 182.06451172 122.06336914 181.31030273 121.71606445 C176.11138338 119.38855451 173.74576346 119.41244357 168.79418945 122.12426758 Z " fill="#F2A657" transform="translate(299.471435546875,1.262451171875)"/>
<path d="M0 0 C3.81267598 2.18680136 6.30434292 4.94664397 8 9 C10.20594752 18.54682505 4.63142691 26.70281651 0.25 34.75 C-0.53802001 36.23313454 -1.32429972 37.71719496 -2.10888672 39.20214844 C-4.37880844 43.48297336 -6.68430339 47.74380415 -9 52 C-9.57459961 53.05960938 -10.14919922 54.11921875 -10.74121094 55.2109375 C-12.65549715 58.73449301 -14.57545795 62.25467964 -16.51367188 65.76513672 C-23.27248734 78.03588272 -29.60636857 90.53636539 -36 103 C-34.65929443 102.36723145 -34.65929443 102.36723145 -33.29150391 101.72167969 C-15.20167051 93.18618338 2.89441615 84.66765014 21.08398438 76.34619141 C23.98812406 75.00548258 26.8776771 73.63690847 29.765625 72.26171875 C31.55201698 71.4243376 33.33847172 70.58709032 35.125 69.75 C35.91245605 69.36658447 36.69991211 68.98316895 37.51123047 68.58813477 C42.60926924 66.22526415 46.37274974 65.4548412 52 66 C54.8100346 67.79363911 56.50940468 69.01880935 58 72 C59.10908308 80.80052916 55.5866258 86.5262543 51.3125 94 C50.6237324 95.23724247 49.93716018 96.47570942 49.25268555 97.71533203 C48.2022788 99.61706777 47.15059397 101.51794755 46.09187317 103.41506958 C42.69794155 109.49977006 39.49444116 115.67709804 36.3125 121.875 C32.70454405 128.86783045 29.03399823 135.81607486 25.22900391 142.70385742 C23.25265782 146.28876267 21.31002024 149.8914056 19.36914062 153.49560547 C18.04617758 155.91553324 16.67430567 158.30220306 15.296875 160.69140625 C14.50782805 162.14703728 13.72121409 163.60399083 12.9375 165.0625 C12.56004639 165.67996094 12.18259277 166.29742187 11.79370117 166.93359375 C10.18614269 170.05407585 9.77656173 172.14763087 10.67926025 175.5912323 C14.29275973 184.77406806 18.61912771 193.51146384 23.12168312 202.28546906 C24.48660327 204.94831762 25.8413242 207.61613296 27.19328308 210.2855835 C31.03301258 217.86507914 34.88316343 225.43914048 38.75756836 233.00097656 C41.13899902 237.65066737 43.50263132 242.30904104 45.85523033 246.97338104 C46.75003004 248.73891403 47.65146771 250.50109983 48.55979347 252.25971222 C49.82854413 254.71742648 51.07430666 257.18559438 52.31567383 259.65722656 C52.69119888 260.37120605 53.06672394 261.08518555 53.45362854 261.82080078 C55.90356383 266.77896488 57.01593895 271.46746849 56 277 C53.81840855 279.75569447 52.12822506 281.43588747 49 283 C41.01114022 282.84896683 35.65604394 280.11794403 28.8125 276.1875 C26.673203 274.99344315 24.53387952 273.79943374 22.39453125 272.60546875 C21.32283691 272.00009277 20.25114258 271.3947168 19.14697266 270.77099609 C14.45762947 268.13201274 9.72873012 265.56749216 5 263 C3.18606299 262.00936161 1.37226195 261.01847419 -0.44140625 260.02734375 C-4.25601749 257.9463389 -8.07685517 255.87734514 -11.90234375 253.81640625 C-21.848122 248.45564711 -31.74855893 243.03650601 -41.5625 237.4375 C-50.07196664 232.58521012 -58.68800106 227.99471357 -67.39501953 223.50830078 C-73.99772583 220.08926128 -80.48547912 216.50716922 -86.9375 212.8125 C-95.51402982 207.90309365 -104.18524737 203.20588288 -112.92446899 198.59518433 C-123.411008 193.06180847 -133.88513708 187.5090021 -144.25 181.75 C-145.18972656 181.23759766 -146.12945312 180.72519531 -147.09765625 180.19726562 C-151.59742605 177.67078318 -155.26874055 175.54457495 -158 171 C-158.45426435 167.36588516 -158.28073471 164.84220412 -157.125 161.375 C-153.80896065 157.66883838 -149.49942831 155.98380047 -145 154 C-147.95718205 151.66636189 -150.98175484 149.83631058 -154.3046875 148.06640625 C-155.87621582 147.22553467 -155.87621582 147.22553467 -157.47949219 146.36767578 C-159.16026855 145.47411377 -159.16026855 145.47411377 -160.875 144.5625 C-162.63595507 143.62020014 -164.39690646 142.67789316 -166.1574707 141.73486328 C-167.35307823 141.09452835 -168.54888031 140.45455657 -169.74487305 139.81494141 C-178.06330817 135.36541375 -186.34881164 130.85620176 -194.61425781 126.30908203 C-196.8505026 125.08203081 -199.09283407 123.86679272 -201.3359375 122.65234375 C-202.59942599 121.95657774 -203.86248364 121.26002845 -205.125 120.5625 C-206.17945313 119.98628906 -207.23390625 119.41007812 -208.3203125 118.81640625 C-211.80458936 116.45461508 -214.11893751 113.76212498 -216 110 C-216.41593526 105.48070346 -216.55848834 101.35212967 -214.8125 97.125 C-210.97963046 92.63129089 -206.54166987 90.11079335 -201.234375 87.63671875 C-200.57728546 87.32839111 -199.92019592 87.02006348 -199.24319458 86.70239258 C-197.08189354 85.69063788 -194.91608417 84.68896837 -192.75 83.6875 C-191.21610683 82.97219357 -189.68241881 82.25644707 -188.14892578 81.5402832 C-177.4238151 76.54196428 -166.65133797 71.64935542 -155.86679077 66.78094482 C-142.29059634 60.64807329 -128.84021748 54.2605675 -115.39453125 47.84765625 C-104.05595496 42.44109072 -92.68206058 37.12338339 -81.265625 31.8828125 C-74.84260226 28.93363263 -68.437344 25.94686615 -62.03430176 22.95465088 C-60.14255116 22.07070105 -58.25052217 21.18735003 -56.35839844 20.30419922 C-51.26268872 17.9256008 -46.16704172 15.54688403 -41.07421875 13.16210938 C-37.86834551 11.66095125 -34.66114333 10.16266654 -31.45306396 8.66622925 C-29.67881664 7.83763306 -27.90603477 7.00590122 -26.13330078 6.17407227 C-7.78926171 -2.37565283 -7.78926171 -2.37565283 0 0 Z M-16.37890625 12.26171875 C-17.45258705 12.77467247 -17.45258705 12.77467247 -18.54795837 13.29798889 C-20.89038927 14.41920128 -23.22625821 15.55345622 -25.5625 16.6875 C-27.19477607 17.47084531 -28.82759451 18.25306143 -30.4609375 19.03417969 C-32.93994825 20.21993721 -35.41859377 21.40639762 -37.89553833 22.59646606 C-45.0689609 26.04295235 -52.27572411 29.41147337 -59.5 32.75 C-61.1854895 33.53068848 -61.1854895 33.53068848 -62.9050293 34.32714844 C-65.14903906 35.36650654 -67.39325887 36.40541126 -69.63769531 37.44384766 C-75.3854791 40.10405488 -81.13029215 42.77065826 -86.875 45.4375 C-88.02548828 45.97149414 -89.17597656 46.50548828 -90.36132812 47.05566406 C-99.54487036 51.31999969 -108.72080937 55.60048879 -117.8949585 59.88497925 C-126.92453854 64.1017422 -135.95979621 68.30604497 -145 72.5 C-148.46167781 74.10706694 -151.92324711 75.71436733 -155.38476562 77.32177734 C-157.88318408 78.48156452 -160.38185411 79.64079547 -162.88085938 80.79931641 C-180.89040451 89.11735899 -180.89040451 89.11735899 -198.75 97.75 C-199.38131836 98.06106689 -200.01263672 98.37213379 -200.66308594 98.69262695 C-203.14621922 99.9431283 -205.01806024 101.01806024 -207 103 C-206.82454964 105.88572703 -206.54742909 107.45875409 -204.46533203 109.51733398 C-197.79526686 113.65308717 -190.91228901 117.35011449 -183.95654297 120.97671509 C-180.39970109 122.83205284 -176.85159512 124.70387987 -173.3046875 126.578125 C-172.59745544 126.95177689 -171.89022339 127.32542877 -171.16156006 127.71040344 C-163.77759297 131.62545966 -156.50337252 135.72408302 -149.25732422 139.88891602 C-146.84548431 141.27264214 -144.42447488 142.6385721 -142 144 C-141.27941406 144.42071777 -140.55882812 144.84143555 -139.81640625 145.27490234 C-139.13449219 145.65211426 -138.45257813 146.02932617 -137.75 146.41796875 C-137.16734375 146.74949951 -136.5846875 147.08103027 -135.984375 147.42260742 C-130.38854976 149.05082183 -125.00187976 145.82194602 -120.0859375 143.421875 C-119.32635742 143.05876221 -118.56677734 142.69564941 -117.78417969 142.3215332 C-115.31115357 141.13776598 -112.8431697 139.94385493 -110.375 138.75 C-107.80187649 137.51550524 -105.22747611 136.2837019 -102.65298462 135.05206299 C-100.92403942 134.22475197 -99.19550396 133.39658415 -97.46737671 132.56756592 C-88.71243776 128.37072841 -79.9052241 124.29155678 -71.08349609 120.23730469 C-69.04546196 119.29716384 -67.01183884 118.34738387 -64.98339844 117.38671875 C-62.9230381 116.42903899 -60.84079927 115.51755004 -58.74316406 114.64453125 C-52.36324842 111.83666834 -48.79131201 109.61213431 -46.0012207 103.12695312 C-45.67081787 102.26005859 -45.34041504 101.39316406 -45 100.5 C-44.18706599 98.60155317 -43.36784261 96.70578952 -42.54296875 94.8125 C-41.92301025 93.36037109 -41.92301025 93.36037109 -41.29052734 91.87890625 C-39.22585159 87.27303101 -36.77933189 82.8999429 -34.3125 78.5 C-29.20989413 69.30467901 -24.33938373 60.00254153 -19.54922485 50.64208984 C-16.24407858 44.18462289 -12.90207566 37.76084495 -9.34375 31.4375 C-8.49586914 29.92639648 -8.49586914 29.92639648 -7.63085938 28.38476562 C-6.57192424 26.51165522 -5.50095201 24.64528032 -4.41601562 22.78710938 C-3.94873047 21.96017578 -3.48144531 21.13324219 -3 20.28125 C-2.5875 19.57033203 -2.175 18.85941406 -1.75 18.12695312 C-0.77697959 15.36752807 -1.12143513 13.76153073 -2 11 C-3.7918839 8.81289406 -3.7918839 8.81289406 -6.16381836 8.67114258 C-9.94541654 9.10962177 -13.0046757 10.60366097 -16.37890625 12.26171875 Z " fill="#F2A657" transform="translate(216,39)"/>
<path d="M0 0 C3.81267598 2.18680136 6.30434292 4.94664397 8 9 C10.20594752 18.54682505 4.63142691 26.70281651 0.25 34.75 C-0.53802001 36.23313454 -1.32429972 37.71719496 -2.10888672 39.20214844 C-4.37880844 43.48297336 -6.68430339 47.74380415 -9 52 C-9.57459961 53.05960938 -10.14919922 54.11921875 -10.74121094 55.2109375 C-12.65801531 58.73912808 -14.5800882 62.26413233 -16.52246094 65.77832031 C-21.52010591 74.84405514 -26.22966712 84.05788835 -30.92626953 93.28222656 C-31.53415883 94.46941172 -32.14206806 95.65658668 -32.75 96.84375 C-33.54664063 98.40899414 -33.54664063 98.40899414 -34.359375 100.00585938 C-36 103 -36 103 -38.265625 106.00976562 C-40.23656617 108.83360624 -40.23656617 108.83360624 -40.00537109 111.84204102 C-38.69185217 115.96791944 -36.89492504 119.684365 -34.9140625 123.52734375 C-34.50136108 124.34435257 -34.08865967 125.16136139 -33.66345215 126.00312805 C-32.78123011 127.74777604 -31.89544391 129.49062552 -31.00640869 131.23181152 C-28.68657126 135.77554825 -26.39207269 140.33207313 -24.09375 144.88671875 C-23.64315216 145.77779327 -23.19255432 146.6688678 -22.728302 147.58694458 C-19.00662083 154.95582348 -15.41162719 162.37552425 -11.90551758 169.84960938 C-9.44725611 175.06188504 -6.88023123 180.20686497 -4.23046875 185.32421875 C-3.57444487 186.60045121 -2.91868295 187.87681836 -2.26318359 189.15332031 C-0.99814118 191.61657926 0.28668299 194.06800059 1.58349609 196.51464844 C4.72655111 202.63148314 6.95918022 207.08423004 6 214 C4.19991942 218.30019249 1.20932024 221.89749961 -3 224 C-12.08324799 225.68995111 -18.57753213 222.28577278 -26.25 217.8125 C-27.98229879 216.84176454 -29.71459761 215.87102914 -31.44689941 214.90029907 C-34.30928966 213.28651142 -37.15317276 211.64107764 -40 210 C-42.76597147 208.42324685 -45.53449481 206.85107516 -48.30371094 205.2800293 C-50.12089622 204.24885398 -51.93662419 203.21510679 -53.75097656 202.17895508 C-63.13451273 196.85029901 -72.68323443 191.84459194 -82.23458862 186.82583618 C-91.09472306 182.16784324 -99.88729339 177.43462194 -108.5625 172.4375 C-118.42926053 166.76013999 -128.51674284 161.56990911 -138.65524292 156.40124512 C-148.52746188 151.36399997 -158.24984602 146.14300076 -167.85864258 140.61474609 C-174.54937205 136.77781632 -181.33467233 133.16355102 -188.1875 129.625 C-212.4777571 117.04448579 -212.4777571 117.04448579 -216 110 C-216.41593526 105.48070346 -216.55848834 101.35212967 -214.8125 97.125 C-210.97963046 92.63129089 -206.54166987 90.11079335 -201.234375 87.63671875 C-200.57728546 87.32839111 -199.92019592 87.02006348 -199.24319458 86.70239258 C-197.08189354 85.69063788 -194.91608417 84.68896837 -192.75 83.6875 C-191.21610683 82.97219357 -189.68241881 82.25644707 -188.14892578 81.5402832 C-177.4238151 76.54196428 -166.65133797 71.64935542 -155.86679077 66.78094482 C-142.29059634 60.64807329 -128.84021748 54.2605675 -115.39453125 47.84765625 C-104.05595496 42.44109072 -92.68206058 37.12338339 -81.265625 31.8828125 C-74.84260226 28.93363263 -68.437344 25.94686615 -62.03430176 22.95465088 C-60.14255116 22.07070105 -58.25052217 21.18735003 -56.35839844 20.30419922 C-51.26268872 17.9256008 -46.16704172 15.54688403 -41.07421875 13.16210938 C-37.86834551 11.66095125 -34.66114333 10.16266654 -31.45306396 8.66622925 C-29.67881664 7.83763306 -27.90603477 7.00590122 -26.13330078 6.17407227 C-7.78926171 -2.37565283 -7.78926171 -2.37565283 0 0 Z M-16.37890625 12.26171875 C-17.45258705 12.77467247 -17.45258705 12.77467247 -18.54795837 13.29798889 C-20.89038927 14.41920128 -23.22625821 15.55345622 -25.5625 16.6875 C-27.19477607 17.47084531 -28.82759451 18.25306143 -30.4609375 19.03417969 C-32.93994825 20.21993721 -35.41859377 21.40639762 -37.89553833 22.59646606 C-45.0689609 26.04295235 -52.27572411 29.41147337 -59.5 32.75 C-61.1854895 33.53068848 -61.1854895 33.53068848 -62.9050293 34.32714844 C-65.14903906 35.36650654 -67.39325887 36.40541126 -69.63769531 37.44384766 C-75.3854791 40.10405488 -81.13029215 42.77065826 -86.875 45.4375 C-88.02548828 45.97149414 -89.17597656 46.50548828 -90.36132812 47.05566406 C-99.54487036 51.31999969 -108.72080937 55.60048879 -117.8949585 59.88497925 C-126.92453854 64.1017422 -135.95979621 68.30604497 -145 72.5 C-148.46167781 74.10706694 -151.92324711 75.71436733 -155.38476562 77.32177734 C-157.88318408 78.48156452 -160.38185411 79.64079547 -162.88085938 80.79931641 C-180.89040451 89.11735899 -180.89040451 89.11735899 -198.75 97.75 C-199.38131836 98.06106689 -200.01263672 98.37213379 -200.66308594 98.69262695 C-203.14621922 99.9431283 -205.01806024 101.01806024 -207 103 C-206.82454964 105.88572703 -206.54742909 107.45875409 -204.46533203 109.51733398 C-197.79526686 113.65308717 -190.91228901 117.35011449 -183.95654297 120.97671509 C-180.39970109 122.83205284 -176.85159512 124.70387987 -173.3046875 126.578125 C-172.59745544 126.95177689 -171.89022339 127.32542877 -171.16156006 127.71040344 C-163.77759297 131.62545966 -156.50337252 135.72408302 -149.25732422 139.88891602 C-146.84548431 141.27264214 -144.42447488 142.6385721 -142 144 C-141.27941406 144.42071777 -140.55882812 144.84143555 -139.81640625 145.27490234 C-139.13449219 145.65211426 -138.45257813 146.02932617 -137.75 146.41796875 C-137.16734375 146.74949951 -136.5846875 147.08103027 -135.984375 147.42260742 C-130.38854976 149.05082183 -125.00187976 145.82194602 -120.0859375 143.421875 C-119.32635742 143.05876221 -118.56677734 142.69564941 -117.78417969 142.3215332 C-115.31115357 141.13776598 -112.8431697 139.94385493 -110.375 138.75 C-107.80187649 137.51550524 -105.22747611 136.2837019 -102.65298462 135.05206299 C-100.92403942 134.22475197 -99.19550396 133.39658415 -97.46737671 132.56756592 C-88.71243776 128.37072841 -79.9052241 124.29155678 -71.08349609 120.23730469 C-69.04546196 119.29716384 -67.01183884 118.34738387 -64.98339844 117.38671875 C-62.9230381 116.42903899 -60.84079927 115.51755004 -58.74316406 114.64453125 C-52.36324842 111.83666834 -48.79131201 109.61213431 -46.0012207 103.12695312 C-45.67081787 102.26005859 -45.34041504 101.39316406 -45 100.5 C-44.18706599 98.60155317 -43.36784261 96.70578952 -42.54296875 94.8125 C-41.92301025 93.36037109 -41.92301025 93.36037109 -41.29052734 91.87890625 C-39.22585159 87.27303101 -36.77933189 82.8999429 -34.3125 78.5 C-29.20989413 69.30467901 -24.33938373 60.00254153 -19.54922485 50.64208984 C-16.24407858 44.18462289 -12.90207566 37.76084495 -9.34375 31.4375 C-8.49586914 29.92639648 -8.49586914 29.92639648 -7.63085938 28.38476562 C-6.57192424 26.51165522 -5.50095201 24.64528032 -4.41601562 22.78710938 C-3.94873047 21.96017578 -3.48144531 21.13324219 -3 20.28125 C-2.5875 19.57033203 -2.175 18.85941406 -1.75 18.12695312 C-0.77697959 15.36752807 -1.12143513 13.76153073 -2 11 C-3.7918839 8.81289406 -3.7918839 8.81289406 -6.16381836 8.67114258 C-9.94541654 9.10962177 -13.0046757 10.60366097 -16.37890625 12.26171875 Z " fill="#FEFEFD" transform="translate(216,39)"/>
<path d="M0 0 C3.00750624 1.4769958 6.02897691 2.924339 9.05001831 4.37339783 C10.61830726 5.12575114 12.1859094 5.87953771 13.75283813 6.63471985 C20.72376192 9.98871808 27.75692202 13.19281541 34.81292725 16.36294556 C48.02128115 22.29869828 61.11670452 28.4516415 74.18157959 34.69638062 C86.00290091 40.34589484 97.84209494 45.88429291 109.86590576 51.09237671 C121.03025565 55.93485836 132.03998222 61.10403958 143.06292725 66.25839233 C146.79021541 67.99705583 150.52211386 69.72542069 154.25579834 71.45028687 C155.51191761 72.03114472 156.76802128 72.61203631 158.02410889 73.19296265 C160.38035551 74.28268446 162.73737994 75.37066189 165.09490967 76.45761108 C170.52864558 78.97371727 175.94249248 81.52747831 181.32220459 84.15731812 C182.28674561 84.62830933 183.25128662 85.09930054 184.24505615 85.58456421 C187.7825957 87.56175815 189.24560349 89.14104395 190.68157959 92.94638062 C191.40434435 98.20213739 191.56076649 102.26445784 189.06439209 107.04013062 C186.40575074 110.28280137 183.7147745 112.05713242 180.05657959 113.94638062 C179.37345703 114.31537476 178.69033447 114.6843689 177.98651123 115.06454468 C176.43380927 115.90088756 174.87730808 116.73020144 173.31781006 117.55380249 C169.34560716 119.65210267 165.39161951 121.78404275 161.43548584 123.91244507 C159.19817957 125.11591952 156.95987419 126.31753817 154.72064209 127.51742554 C147.60925513 131.33633401 140.56362076 135.25226149 133.55657959 139.25888062 C122.97274965 145.30104412 112.22769505 151.01600825 101.45452881 156.71029663 C100.09138103 157.43086297 98.7282622 158.15148408 97.36517334 158.87216187 C96.70106445 159.2232753 96.03695557 159.57438873 95.35272217 159.93614197 C87.85009002 163.90790089 80.40239702 167.97838751 72.95892334 172.05966187 C69.25058359 174.09259309 65.53366209 176.10871884 61.81048584 178.11434937 C51.85369712 183.47928626 41.94315999 188.90410068 32.11907959 194.50888062 C21.61865012 200.49632488 10.94345857 206.10749827 0.18768311 211.62045288 C-2.29358978 212.93324324 -4.70522987 214.33615888 -7.12701416 215.75497437 C-12.25512426 218.62121756 -16.54653749 218.90388677 -22.31842041 217.94638062 C-26.13820243 216.17291039 -27.80178918 214.68688538 -30.19342041 211.25888062 C-32.1840472 205.39759061 -32.11683525 200.11886034 -29.56524658 194.43417358 C-28.76562696 192.84295938 -27.94662545 191.26137913 -27.11138916 189.68856812 C-26.6749408 188.83114014 -26.23849243 187.97371216 -25.78881836 187.09030151 C-24.37735435 184.32535405 -22.94174876 181.57374108 -21.50592041 178.82138062 C-20.52739467 176.91308522 -19.55092003 175.0037367 -18.57647705 173.09335327 C-17.13398653 170.26607729 -15.69031533 167.43949564 -14.2396698 164.61639404 C-10.7912104 157.90485881 -7.46482735 151.15119923 -4.25592041 144.32138062 C-0.51226901 136.40074346 3.33168207 128.53514642 7.24407959 120.69638062 C8.01473755 119.14829712 8.01473755 119.14829712 8.80096436 117.56893921 C9.27848145 116.61583862 9.75599854 115.66273804 10.24798584 114.68075562 C10.67023438 113.83738647 11.09248291 112.99401733 11.52752686 112.12509155 C12.68157959 109.94638062 12.68157959 109.94638062 14.68157959 106.94638062 C14.5814868 100.39030278 11.63825461 95.65212206 8.43157959 90.07138062 C7.33291711 88.11043253 6.23665281 86.14813931 5.14251709 84.18466187 C4.5724292 83.16453003 4.00234131 82.14439819 3.41497803 81.09335327 C0.53463823 75.86411665 -2.20449473 70.56318113 -4.94342041 65.25888062 C-6.03837645 63.1429455 -7.13342705 61.02705931 -8.22857666 58.91122437 C-8.75209717 57.89914917 -9.27561768 56.88707397 -9.81500244 55.84432983 C-11.589025 52.42477028 -13.37861935 49.01370533 -15.17584229 45.60629272 C-15.97214072 44.09645541 -16.76644943 42.58556683 -17.55865479 41.07357788 C-19.8708247 36.66446664 -22.22219653 32.27948528 -24.60357666 27.90731812 C-25.71695255 25.83705651 -26.8302351 23.7667447 -27.94342041 21.69638062 C-28.47717285 20.7313562 -29.01092529 19.76633179 -29.56085205 18.77206421 C-32.65208347 12.98420502 -34.69489856 8.48619364 -32.68951416 1.87216187 C-24.55654485 -12.18188134 -11.75293323 -5.77286285 0 0 Z M98.94720459 62.33309937 C97.51634521 63.11185425 97.51634521 63.11185425 96.05657959 63.90634155 C95.02532959 64.47642944 93.99407959 65.04651733 92.93157959 65.63388062 C91.85392334 66.22330444 90.77626709 66.81272827 89.66595459 67.42001343 C81.70848032 71.78686336 73.80206187 76.24244911 65.93963623 80.77816772 C60.10769023 84.11205791 54.1990701 87.22354694 48.19329834 90.22763062 C45.98193781 91.34852198 43.77170559 92.47161133 41.56170654 93.59518433 C40.11111731 94.32370929 38.65473084 95.0408145 37.19256592 95.74581909 C35.1359018 96.73801961 33.10202456 97.7675274 31.06829834 98.80575562 C29.88453613 99.3880896 28.70077393 99.97042358 27.48114014 100.57040405 C24.46389909 103.13112524 24.34442885 103.41065362 23.77224731 107.03109741 C22.7594328 112.1430034 20.80451787 116.35424657 18.43133545 120.96688843 C18.00349258 121.81848541 17.57564972 122.6700824 17.13484192 123.54748535 C15.73116213 126.3362038 14.31369626 129.1176747 12.89642334 131.89950562 C11.91413616 133.84711666 10.93291574 135.79526606 9.95271301 137.743927 C7.37883989 142.8557007 4.79404026 147.96185876 2.20581055 153.06637573 C-1.94223616 161.24886337 -6.07873104 169.43714248 -10.20541191 177.6304245 C-11.6474797 180.48765861 -13.09736364 183.3408282 -14.54792786 186.1937561 C-15.43144451 187.94350175 -16.31467438 189.69339224 -17.1975708 191.44345093 C-17.60226593 192.23420013 -18.00696106 193.02494934 -18.42391968 193.83966064 C-21.11729336 199.15055953 -21.11729336 199.15055953 -22.31842041 204.94638062 C-21.32807815 207.35022057 -21.32807815 207.35022057 -19.31842041 208.94638062 C-15.3167506 209.38886082 -13.02918529 208.5500642 -9.60748291 206.52450562 C-8.70449463 205.99985718 -7.80150635 205.47520874 -6.87115479 204.93466187 C-5.42192627 204.07421265 -5.42192627 204.07421265 -3.94342041 203.19638062 C4.00691925 198.5826597 12.00233664 194.14120701 20.18157959 189.94638062 C27.75902148 186.04405244 35.22265341 181.99407307 42.61907959 177.75888062 C51.89997348 172.4493911 61.29212824 167.37965726 70.74407959 162.38388062 C71.77696609 161.83789719 71.77696609 161.83789719 72.83071899 161.28088379 C73.51618805 160.91856659 74.2016571 160.55624939 74.90789795 160.18295288 C76.27129168 159.4622272 77.63465467 158.74144337 78.99798584 158.02059937 C79.66210983 157.66947586 80.32623383 157.31835236 81.01048279 156.95658875 C88.51310867 152.98485714 95.96077833 148.91436485 103.40423584 144.83309937 C107.11257559 142.80016814 110.82949709 140.78404239 114.55267334 138.77841187 C125.43351421 132.91598079 136.25178046 126.96469828 146.99066162 120.84579468 C155.3025988 116.12359241 163.70388958 111.57462691 172.14251709 107.08309937 C173.10029053 106.57005249 174.05806396 106.05700562 175.04486084 105.52841187 C175.8934668 105.07699829 176.74207275 104.62558472 177.61639404 104.16049194 C180.26080544 102.60585689 181.49481147 101.63742266 182.30657959 98.63388062 C181.9108649 95.59175668 181.9108649 95.59175668 178.56439209 93.71591187 C172.27375246 89.96916857 165.57217455 87.00911402 158.93157959 83.94638062 C157.51738599 83.28961139 156.10340783 82.63237808 154.68963623 81.97470093 C151.79064061 80.62712021 148.89026875 79.2825707 145.9887085 77.94052124 C141.85541005 76.0282471 137.72695602 74.10570394 133.59954834 72.18075562 C131.10623465 71.01891943 128.61269675 69.8575653 126.11907959 68.69638062 C124.96762451 68.16013062 123.81616943 67.62388062 122.62982178 67.07138062 C119.65069282 65.68830908 116.66808238 64.31344559 113.68157959 62.94638062 C112.94955322 62.60929077 112.21752686 62.27220093 111.46331787 61.92489624 C106.26439852 59.5973863 103.89877859 59.62127535 98.94720459 62.33309937 Z " fill="#FEFEFD" transform="translate(369.31842041015625,61.053619384765625)"/>
<path d="M0 0 C1.66445902 2.49668853 2.52837938 4.24234576 3.52636719 6.99121094 C6.56003315 14.71735573 10.44299985 22.03881167 14.20114899 29.43036652 C15.60112573 32.18589662 16.99447392 34.94468473 18.38592529 37.70452881 C22.33912913 45.54407488 26.29915923 53.38011327 30.27539062 61.20800781 C32.7152606 66.01246541 35.14339847 70.82269624 37.5641098 75.63683319 C38.48628296 77.4650874 39.41289209 79.29111119 40.34403229 81.11481476 C41.6430955 83.65999209 42.92711704 86.21224194 44.20800781 88.76660156 C44.59445465 89.51478149 44.98090149 90.26296143 45.37905884 91.03381348 C47.43571743 95.17882932 48.56703108 98.25813446 48 103 C46.8125 104.875 46.8125 104.875 45 106 C39.94400759 106.78999881 36.38065603 104.28466819 32.1875 101.8125 C30.5882029 100.89545338 28.98788561 99.98018434 27.38671875 99.06640625 C26.5261084 98.57285645 25.66549805 98.07930664 24.77880859 97.57080078 C18.74299021 94.15888236 12.61259269 90.9168903 6.50073242 87.64379883 C0.97543472 84.66792462 -4.43308451 81.56058948 -9.79736328 78.30419922 C-12.52530613 76.68896195 -15.32369358 75.29563277 -18.1875 73.9375 C-25.43141387 70.4119797 -32.38879802 66.41818873 -39.37646484 62.41430664 C-45.2288849 59.07989862 -51.12350527 55.84654522 -57.08203125 52.70703125 C-57.76558685 52.34628006 -58.44914246 51.98552887 -59.15341187 51.61384583 C-62.53822796 49.82961157 -65.92788175 48.05541292 -69.32421875 46.29321289 C-70.56653151 45.6410263 -71.80872486 44.9886122 -73.05078125 44.3359375 C-74.15075439 43.76407715 -75.25072754 43.1922168 -76.3840332 42.60302734 C-79 41 -79 41 -81 38 C-62.75144829 29.14511587 -44.41917038 20.49529996 -26 12 C-24.11424923 11.12918818 -22.22863262 10.25808633 -20.34303284 9.38694763 C-13.56346918 6.25482553 -6.78236183 3.12605842 0 0 Z " fill="#F2A657" transform="translate(165,149)"/>
<path d="M0 0 C3.38691883 1.35265754 6.61860662 2.98643447 9.875 4.625 C18.9303372 9.0724145 28.05036131 13.33407689 37.24688721 17.47845459 C48.71460905 22.64644476 60.11118973 27.92561497 71.42651367 33.42138672 C81.87097124 38.46975375 92.43783625 43.24418108 103.01171875 48.01367188 C103.69671951 48.32300156 104.38172028 48.63233124 105.08747864 48.95103455 C106.95313493 49.79301076 108.81967681 50.6330239 110.6862793 51.47290039 C113.82547381 52.91957111 116.91800142 54.43569887 120 56 C116.32196563 59.12913194 112.59905842 61.42325229 108.3203125 63.65234375 C107.67941177 63.98878906 107.03851105 64.32523437 106.37818909 64.671875 C105.00702416 65.39145879 103.63470077 66.10883874 102.26132202 66.82418823 C98.63503675 68.71397171 95.01823445 70.62166947 91.40234375 72.53125 C90.68047379 72.91232407 89.95860382 73.29339813 89.21485901 73.6860199 C82.97460371 76.99120663 76.81706446 80.43131236 70.6875 83.9375 C63.57959552 87.9882616 56.45637511 92.00142699 49.25 95.875 C48.0602356 96.52843384 48.0602356 96.52843384 46.84643555 97.19506836 C44.93768872 98.20933438 42.97221864 99.11546417 41 100 C38 99 38 99 36.51953125 96.4921875 C35.95621094 95.29851562 35.39289063 94.10484375 34.8125 92.875 C34.108023 91.41543107 33.40072543 89.95722188 32.69140625 88.5 C32.27906738 87.65050781 31.86672852 86.80101562 31.44189453 85.92578125 C28.45693035 79.868922 25.34764097 73.8747765 22.25 67.875 C21.90188263 67.19991394 21.55376526 66.52482788 21.19509888 65.82928467 C16.8101117 57.33197296 12.35641102 48.87999405 7.75 40.5 C3.54271098 32.83394478 -0.64400864 25.15841685 -4.75 17.4375 C-5.27625977 16.46683594 -5.80251953 15.49617188 -6.34472656 14.49609375 C-6.82393555 13.58859375 -7.30314453 12.68109375 -7.796875 11.74609375 C-8.43641113 10.55004517 -8.43641113 10.55004517 -9.08886719 9.32983398 C-10.11874612 6.69635739 -10.24666973 4.80454042 -10 2 C-7.63894464 -2.16656829 -4.03846344 -1.04950163 0 0 Z " fill="#F2A657" transform="translate(355,64)"/>
<path d="M0 0 C1.875 1 1.875 1 3 3 C3.55473301 9.54124514 2.27272811 13.55608831 -0.76953125 19.28515625 C-1.1610437 20.05408203 -1.55255615 20.82300781 -1.95593262 21.61523438 C-3.2272456 24.10523872 -4.51996544 26.58345644 -5.8125 29.0625 C-6.70331362 30.80103094 -7.5922177 32.54054158 -8.47924805 34.28100586 C-10.2182298 37.69248893 -11.96265768 41.10108641 -13.7109375 44.5078125 C-16.34036889 49.64836686 -18.85608332 54.83723903 -21.3125 60.0625 C-26.46965146 70.94577184 -31.71202287 81.78757132 -36.97885132 92.61813354 C-37.98881356 94.69752717 -38.99650374 96.77802596 -40.00186157 98.85964966 C-41.42241279 101.79997127 -42.85087875 104.7363206 -44.28125 107.671875 C-44.71205368 108.56766769 -45.14285736 109.46346039 -45.5867157 110.38639832 C-46.19444572 111.62744072 -46.19444572 111.62744072 -46.81445312 112.89355469 C-47.34093445 113.97863312 -47.34093445 113.97863312 -47.87805176 115.08563232 C-49.07150072 117.12200087 -50.15650586 118.52396725 -52 120 C-55.4093712 120.36528977 -57.88023824 120.6140629 -60.9375 118.9375 C-62.57916957 115.94386726 -62.55103516 113.28514525 -62 110 C-60.51652689 106.18269154 -58.60981761 102.61234531 -56.6875 99 C-52.61646023 91.19671839 -48.6999665 83.34542652 -44.91796875 75.3984375 C-39.14199084 63.26232304 -33.2558004 51.18197907 -27.33642578 39.11523438 C-25.60325936 35.58066274 -23.87386192 32.04426211 -22.14453125 28.5078125 C-21.02626927 26.22645092 -19.90778791 23.94519686 -18.7890625 21.6640625 C-18.28065826 20.62335602 -17.77225403 19.58264954 -17.2484436 18.51040649 C-7.83713832 -0.63976639 -7.83713832 -0.63976639 0 0 Z " fill="#FFFFFF" transform="translate(310,100)"/>
</svg>
